<svg t="1663850651442" class="icon" viewBox="0 0 1024 1024" version="1.1" xmlns="http://www.w3.org/2000/svg" p-id="2731" width="200" height="200"><path d="M311.843866 880.015701c-120.448256-70.324672-196.052165-199.167109-196.052165-341.187683 0-218.019479 176.750563-394.769019 394.769019-394.769019 217.992873 0 394.739343 176.754656 394.739343 394.769019 0 142.444223-76.044954 271.594675-197.050911 341.761758-12.757558 7.397481-17.107633 23.733541-9.708106 36.495192 7.397481 12.757558 23.738657 17.102516 36.495192 9.700943 137.315412-79.617315 223.670176-226.27756 223.670176-387.957893 0-247.511163-200.654996-448.173322-448.14467-448.173322-247.515257 0-448.174346 200.659089-448.174346 448.173322 0 161.206542 85.84925 307.506583 222.533282 387.305023 12.732999 7.435343 29.088502 3.139503 36.523845-9.593496C328.877821 903.801431 324.580958 887.451044 311.843866 880.015701L311.843866 880.015701 311.843866 880.015701zM483.853451 117.352755l0 79.254042c0 14.750959 11.95938 26.705222 26.706245 26.705222 14.744819 0 26.699082-11.954263 26.699082-26.705222L537.258779 117.352755c0-14.744819-11.954263-26.699082-26.699082-26.699082C495.812831 90.654696 483.853451 102.607936 483.853451 117.352755L483.853451 117.352755 483.853451 117.352755zM850.377172 318.310649l-56.04955 56.023968c-10.432607 10.422374-10.432607 27.331485-0.010233 37.759999 10.42442 10.43363 27.333532 10.43363 37.761022 0.010233l56.050574-56.022944c10.431583-10.423397 10.431583-27.332509 0.00921-37.761022C877.714797 307.888276 860.804662 307.888276 850.377172 318.310649L850.377172 318.310649 850.377172 318.310649zM244.704746 746.729046l-56.04648 56.050574c-10.426467 10.425444-10.426467 27.332509 0 37.757952 10.428513 10.429537 27.332509 10.429537 37.762045 0l56.050574-56.047504c10.426467-10.42749 10.426467-27.333532 0-37.761022C272.042371 736.299509 255.13326 736.299509 244.704746 746.729046L244.704746 746.729046 244.704746 746.729046zM834.975391 802.783713l-56.022944-56.04955c-10.42749-10.434653-27.332509-10.434653-37.765115-0.010233-10.42749 10.42442-10.432607 27.333532-0.00921 37.761022l56.022944 56.047504c10.42749 10.43056 27.332509 10.434653 37.765115 0.01228C845.394694 830.119291 845.399811 813.212226 834.975391 802.783713L834.975391 802.783713 834.975391 802.783713zM233.231437 374.337687l-56.021921-56.022944c-10.428513-10.426467-27.333532-10.426467-37.762045 0-10.42749 10.428513-10.42749 27.332509 0 37.762045l56.017828 56.022944c10.428513 10.428513 27.337625 10.428513 37.766139 0C243.658927 401.671219 243.658927 384.766201 233.231437 374.337687L233.231437 374.337687 233.231437 374.337687zM233.231437 374.337687" p-id="2732" fill="#ffffff"></path><path d="M560.779472 452.591959l167.215396-167.202093c10.42749-10.42749 27.332509-10.42749 37.761022 0 10.42749 10.42749 10.42749 27.338648 0 37.765115L599.003028 489.89454c9.111518 15.346523 14.346753 33.270754 14.346753 52.416813 0 56.778144-46.025243 102.802364-102.803387 102.802364-19.147082 0-37.074384-5.234211-52.420907-14.3488l-56.431244 56.426127c-10.426467 10.42749-27.332509 10.42442-37.759999-0.004093-10.428513-10.428513-10.428513-27.333532 0-37.761022l56.888661-56.884568c-8.329712-14.859429-13.081946-31.986505-13.081946-50.228985 0-56.776098 46.025243-102.805434 102.805434-102.805434C528.788873 439.505919 545.923112 444.258153 560.779472 452.591959L560.779472 452.591959zM560.779472 452.591959" p-id="2733" fill="#ffffff"></path></svg>