<svg t="1663851143175" class="icon" viewBox="0 0 1024 1024" version="1.1" xmlns="http://www.w3.org/2000/svg" p-id="3709" width="200" height="200"><path d="M411.4 112H202c-50.3 0-87.9 37.2-87.9 80.6v206.7c0 45.5 37.7 82.7 83.8 82.7h213.6c46.1 0 83.8-37.2 83.8-82.7V192.6c-4.3-43.4-42-80.6-83.9-80.6zM828.2 112h-209.4c-46.1 0-83.8 37.2-83.8 80.6v206.7c0 45.5 37.7 82.7 83.8 82.7h209.4c46.1 0 83.8-37.2 83.8-82.7V192.6C914 149.2 876.3 112 828.2 112zM405.2 539.9h-209.4c-46.1 0-83.8 37.2-83.8 82.7v206.7c0 45.5 37.7 82.7 83.8 82.7h209.4c46.1 0 83.8-37.2 83.8-82.7V622.6c-0.1-47.6-37.8-82.7-83.8-82.7zM828.2 539.9h-209.4c-46.1 0-83.8 37.2-83.8 82.7v206.7c0 45.5 37.7 82.7 83.8 82.7h209.4c46.1 0 83.8-37.2 83.8-82.7V622.6c-2.2-47.6-37.8-82.7-83.8-82.7z" p-id="3710" fill="#ffffff"></path></svg>