<svg id="图层_1" data-name="图层 1" xmlns="http://www.w3.org/2000/svg" xmlns:xlink="http://www.w3.org/1999/xlink" viewBox="0 0 313.34 196.88"><defs><style>.cls-1{fill:#0060f4;}.cls-2{fill:#0ad2ff;}.cls-3{fill:#1fc3ff;}.cls-4{fill:#08f;}.cls-4,.cls-5{fill-rule:evenodd;}.cls-5{fill:#4aa0ff;}.cls-6{clip-path:url(#clip-path);}.cls-7{clip-path:url(#clip-path-2);}.cls-8{clip-path:url(#clip-path-3);}</style><clipPath id="clip-path" transform="translate(-97.95 -63)"><path class="cls-1" d="M211.8,107.33,182,124.56a3.59,3.59,0,0,0-1.81,3.12v34.47a3.59,3.59,0,0,0,1.81,3.12l29.84,17.24a3.61,3.61,0,0,0,3.6,0l29.84-17.24a3.58,3.58,0,0,0,1.8-3.12V127.68a3.6,3.6,0,0,0-1.8-3.12L215.4,107.33a3.63,3.63,0,0,0-3.61,0"/></clipPath><clipPath id="clip-path-2" transform="translate(-97.95 -63)"><path class="cls-2" d="M180.89,164.34a3.65,3.65,0,0,0,1.06.93l25.6,14.79,4.27,2.45a3.61,3.61,0,0,0,2.08.47,4.3,4.3,0,0,0,.7-.13l31.48-57.63a3.93,3.93,0,0,0-.84-.67L225.7,113.27l-10.33-5.94a3.86,3.86,0,0,0-.94-.38Z"/></clipPath><clipPath id="clip-path-3" transform="translate(-97.95 -63)"><path class="cls-3" d="M213.24,106.87a3.64,3.64,0,0,0-1.44.46L182,124.51,214.13,183a3.55,3.55,0,0,0,1.28-.44l29.84-17.24a3.62,3.62,0,0,0,1.74-2.46l-32.71-55.88a3.54,3.54,0,0,0-.73-.07h-.29"/></clipPath></defs><path class="cls-4" d="M165.2,127.14a3.63,3.63,0,0,0-1.81-3.15l-30-17.26a3.58,3.58,0,0,0-1.65-.48h-.31a3.5,3.5,0,0,0-1.66.48L99.77,124A3.67,3.67,0,0,0,98,127.14L98,173.63a1.78,1.78,0,0,0,.9,1.57,1.72,1.72,0,0,0,1.8,0L118.55,165a3.67,3.67,0,0,0,1.82-3.15V140.12a3.59,3.59,0,0,1,1.81-3.14l7.59-4.37a3.62,3.62,0,0,1,1.81-.49,3.54,3.54,0,0,1,1.81.49L141,137a3.61,3.61,0,0,1,1.82,3.14v21.72A3.65,3.65,0,0,0,144.6,165l17.83,10.21a1.78,1.78,0,0,0,1.81,0,1.81,1.81,0,0,0,.9-1.57Zm82,81a3.63,3.63,0,0,0-1.81-3.15l-30-17.26a3.58,3.58,0,0,0-1.65-.48h-.31a3.5,3.5,0,0,0-1.66.48l-30,17.26a3.67,3.67,0,0,0-1.82,3.15l.07,46.49a1.78,1.78,0,0,0,.9,1.57,1.72,1.72,0,0,0,1.8,0L200.55,246a3.67,3.67,0,0,0,1.82-3.15V221.12a3.59,3.59,0,0,1,1.81-3.14l7.59-4.37a3.62,3.62,0,0,1,1.81-.49,3.54,3.54,0,0,1,1.81.49L223,218a3.61,3.61,0,0,1,1.82,3.14v21.72A3.65,3.65,0,0,0,226.6,246l17.83,10.21a1.78,1.78,0,0,0,1.81,0,1.81,1.81,0,0,0,.9-1.57Zm82,2a3.63,3.63,0,0,0-1.81-3.15l-30-17.26a3.58,3.58,0,0,0-1.65-.48h-.31a3.5,3.5,0,0,0-1.66.48l-30,17.26a3.67,3.67,0,0,0-1.82,3.15l.07,46.49a1.78,1.78,0,0,0,.9,1.57,1.72,1.72,0,0,0,1.8,0L282.55,248a3.67,3.67,0,0,0,1.82-3.15V223.12a3.59,3.59,0,0,1,1.81-3.14l7.59-4.37a3.62,3.62,0,0,1,1.81-.49,3.54,3.54,0,0,1,1.81.49L305,220a3.61,3.61,0,0,1,1.82,3.14v21.72A3.65,3.65,0,0,0,308.6,248l17.83,10.21a1.78,1.78,0,0,0,1.81,0,1.81,1.81,0,0,0,.9-1.57ZM98,237.57a3.63,3.63,0,0,0,1.82,3.15l30,17.26a3.55,3.55,0,0,0,1.65.48h.31a3.62,3.62,0,0,0,1.65-.48l30-17.26a3.63,3.63,0,0,0,1.82-3.15l-.07-46.5a1.78,1.78,0,0,0-.9-1.56,1.72,1.72,0,0,0-1.8,0L144.6,199.72a3.66,3.66,0,0,0-1.81,3.15v21.72a3.64,3.64,0,0,1-1.81,3.14l-7.6,4.37a3.59,3.59,0,0,1-1.81.49,3.51,3.51,0,0,1-1.8-.49l-7.59-4.37a3.61,3.61,0,0,1-1.82-3.14V202.87a3.65,3.65,0,0,0-1.81-3.14l-17.83-10.21a1.78,1.78,0,0,0-1.81,0,1.8,1.8,0,0,0-.9,1.56Zm208.82-86.22a.89.89,0,0,1-.46.78L296,158.07a.9.9,0,0,1-.9,0l-10.31-5.94a.9.9,0,0,1-.45-.78v-11.9a.92.92,0,0,1,.44-.79l10.3-5.95a.92.92,0,0,1,.91,0l10.31,5.95a.9.9,0,0,1,.45.79Zm2.78-88.12a1.81,1.81,0,0,0-2.69,1.58v46a1.27,1.27,0,0,1-1.27,1.27A1.33,1.33,0,0,1,305,112l-7.51-4.33a3.65,3.65,0,0,0-3.62,0l-30,17.32a3.65,3.65,0,0,0-1.82,3.13v34.66a3.63,3.63,0,0,0,1.82,3.13l30,17.34a3.65,3.65,0,0,0,3.62,0l30-17.34a3.66,3.66,0,0,0,1.82-3.14V76.36a3.65,3.65,0,0,0-1.87-3.17Zm99.94,75.91a3.65,3.65,0,0,0,1.8-3.14v-8.39a3.64,3.64,0,0,0-1.8-3.14l-29.82-17.31a3.64,3.64,0,0,0-3.64,0l-30,17.32a3.6,3.6,0,0,0-1.81,3.14v34.63A3.63,3.63,0,0,0,346,165.4l29.82,17a3.62,3.62,0,0,0,3.55,0l18-10a1.84,1.84,0,0,0,.92-1.58,1.81,1.81,0,0,0-.91-1.58l-30.19-17.32a1.79,1.79,0,0,1-.91-1.57V139.49a1.8,1.8,0,0,1,.9-1.57l9.4-5.42a1.76,1.76,0,0,1,1.8,0l9.4,5.42a1.81,1.81,0,0,1,.91,1.56V148a1.84,1.84,0,0,0,.91,1.57,1.8,1.8,0,0,0,1.81,0ZM346,227.41a3.61,3.61,0,0,0-1.8,3.13v8.4a3.64,3.64,0,0,0,1.8,3.14l29.82,17.31a3.62,3.62,0,0,0,3.63,0l30-17.32a3.62,3.62,0,0,0,1.81-3.14V204.29a3.64,3.64,0,0,0-1.83-3.15l-29.81-17a3.61,3.61,0,0,0-3.56,0l-18,10a1.8,1.8,0,0,0,0,3.15l30.19,17.33a1.81,1.81,0,0,1,.91,1.56v10.87a1.79,1.79,0,0,1-.91,1.57l-9.39,5.42a1.83,1.83,0,0,1-1.81,0l-9.4-5.42a1.82,1.82,0,0,1-.9-1.57v-8.54a1.82,1.82,0,0,0-.91-1.57,1.8,1.8,0,0,0-1.81,0Z" transform="translate(-97.95 -63)"/><path class="cls-5" d="M377.41,137.51a.71.71,0,0,1,.69,0l5.76,3.33a.68.68,0,0,1,.35.6v6.65a.68.68,0,0,1-.35.6L378.1,152a.66.66,0,0,1-.69,0l-5.75-3.32a.69.69,0,0,1-.36-.6v-6.65a.68.68,0,0,1,.35-.6Z" transform="translate(-97.95 -63)"/><path class="cls-1" d="M211.8,107.33,182,124.56a3.59,3.59,0,0,0-1.81,3.12v34.47a3.59,3.59,0,0,0,1.81,3.12l29.84,17.24a3.61,3.61,0,0,0,3.6,0l29.84-17.24a3.58,3.58,0,0,0,1.8-3.12V127.68a3.6,3.6,0,0,0-1.8-3.12L215.4,107.33a3.63,3.63,0,0,0-3.61,0" transform="translate(-97.95 -63)"/><g class="cls-6"><path class="cls-1" d="M277.2,121.63,193.11,80.42l-43.11,88,84.08,41.22Z" transform="translate(-97.95 -63)"/></g><path class="cls-2" d="M180.89,164.34a3.65,3.65,0,0,0,1.06.93l25.6,14.79,4.27,2.45a3.61,3.61,0,0,0,2.08.47,4.3,4.3,0,0,0,.7-.13l31.48-57.63a3.93,3.93,0,0,0-.84-.67L225.7,113.27l-10.33-5.94a3.86,3.86,0,0,0-.94-.38Z" transform="translate(-97.95 -63)"/><g class="cls-7"><path class="cls-2" d="M144.54,133.82l59.37,80.36,78.52-58L223.06,75.81Z" transform="translate(-97.95 -63)"/></g><path class="cls-3" d="M213.24,106.87a3.64,3.64,0,0,0-1.44.46L182,124.51,214.13,183a3.55,3.55,0,0,0,1.28-.44l29.84-17.24a3.62,3.62,0,0,0,1.74-2.46l-32.71-55.88a3.54,3.54,0,0,0-.73-.07h-.29" transform="translate(-97.95 -63)"/><g class="cls-8"><path class="cls-3" d="M182,106.86V183H247V106.86Z" transform="translate(-97.95 -63)"/></g></svg>